<svg width="46px" height="46px" viewBox="0 0 46 46" version="1.1" xmlns="http://www.w3.org/2000/svg" xmlns:xlink="http://www.w3.org/1999/xlink">
    <!-- Generator: Sketch 46 (44423) - http://www.bohemiancoding.com/sketch -->
    <desc>Created with Sketch.</desc>
    <defs></defs>
    <g id="Page-1" stroke="none" stroke-width="1" fill="none" fill-rule="evenodd">
        <g id="Homepage-(1280+)" transform="translate(-756.000000, -27.000000)">
            <g id="header">
                <g id="header__top">
                    <g id="location" transform="translate(757.000000, 28.000000)">
                        <g id="location-icon">
                            <circle id="Oval" stroke="#3ABDB5" cx="22" cy="22" r="15"></circle>
                            <circle id="Oval" stroke="#84ABC2" cx="22" cy="22" r="22"></circle>
                            <g id="67347" transform="translate(17.000000, 15.000000)" fill-rule="nonzero" fill="#FFFFFF">
                                <path d="M5,0 C2.24300802,0 0,2.283678 0,5.09069697 C0,6.218698 0.652265126,7.93417985 2.05272906,10.489369 C3.00837959,12.2328625 3.95962454,13.7055161 3.99975425,13.7675505 L4.68729396,14.8286044 C4.75661436,14.935616 4.87406644,15 5,15 C5.12593356,15 5.24338564,14.935616 5.31270604,14.8286044 L6.00021578,13.7676115 C6.03995588,13.7062789 6.98427779,12.2463495 7.94727094,10.489369 C9.34773487,7.93430191 10,6.21882005 10,5.09069697 C10,2.283678 7.75699198,0 5,0 Z M7.2930278,10.1176203 C6.3434312,11.8500372 5.41403431,13.2870508 5.37486364,13.3474375 L5,13.9259472 L4.62525624,13.34759 C4.58587578,13.2867151 3.64934606,11.8368248 2.7069722,10.1176203 C1.40792644,7.74743583 0.749247755,6.05612085 0.749247755,5.09069697 C0.749247755,2.70430976 2.65611326,0.762843229 5,0.762843229 C7.34388674,0.762843229 9.25075224,2.70430976 9.25075224,5.09069697 C9.25075224,6.05624291 8.59207356,7.74749686 7.2930278,10.1176203 Z" id="Shape"></path>
                                <path d="M5,2.5 C3.62148649,2.5 2.5,3.62151351 2.5,5 C2.5,6.37848649 3.62148649,7.5 5,7.5 C6.37851351,7.5 7.5,6.37848649 7.5,5 C7.5,3.62151351 6.37851351,2.5 5,2.5 Z M5,6.875 C3.96611111,6.875 3.125,6.03388889 3.125,5 C3.125,3.96611111 3.96611111,3.125 5,3.125 C6.03391667,3.125 6.875,3.96611111 6.875,5 C6.875,6.03388889 6.03391667,6.875 5,6.875 Z" id="Shape"></path>
                            </g>
                        </g>
                    </g>
                </g>
            </g>
        </g>
    </g>
</svg>
