
<svg width="22px" height="22px" viewBox="0 0 22 22" version="1.1" xmlns="http://www.w3.org/2000/svg" xmlns:xlink="http://www.w3.org/1999/xlink">
    <!-- Generator: Sketch 46 (44423) - http://www.bohemiancoding.com/sketch -->
    <desc>Created with Sketch.</desc>
    <defs></defs>
    <g id="Page-1" stroke="none" stroke-width="1" fill="none" fill-rule="evenodd">
        <g id="Members-and-Special-(1280+)" transform="translate(-1201.000000, -917.000000)" fill-rule="nonzero" fill="#FFFFFF">
            <g id="members" transform="translate(0.000000, 656.000000)">
                <g id="filters" transform="translate(0.000000, 218.000000)">
                    <g id="top-filters" transform="translate(120.000000, 27.000000)">
                        <g id="search-box" transform="translate(581.000000, 0.000000)">
                            <g id="search-icon" transform="translate(500.000000, 16.000000)">
                                <path d="M13.4271164,15.4271164 C12.0372495,16.4174803 10.3366522,17 8.5,17 C3.80557939,17 0,13.1944206 0,8.5 C0,3.80557939 3.80557939,0 8.5,0 C13.1944206,0 17,3.80557939 17,8.5 C17,10.3366522 16.4174803,12.0372495 15.4271164,13.4271164 L21.0119176,19.0119176 C21.5621186,19.5621186 21.5575313,20.4424687 21.0117185,20.9882815 L20.9882815,21.0117185 C20.4438648,21.5561352 19.5576204,21.5576204 19.0119176,21.0119176 L13.4271164,15.4271164 L13.4271164,15.4271164 Z M8.5,15 C12.0898511,15 15,12.0898511 15,8.5 C15,4.9101489 12.0898511,2 8.5,2 C4.9101489,2 2,4.9101489 2,8.5 C2,12.0898511 4.9101489,15 8.5,15 L8.5,15 Z" id="search"></path>
                            </g>
                        </g>
                    </g>
                </g>
            </g>
        </g>
    </g>
</svg>
