<svg xmlns="http://www.w3.org/2000/svg" width="104" height="65" viewBox="0 0 104 65">
  <defs>
    <style>
      .cls-1 {
        fill: #fff;
        fill-rule: evenodd;
      }
    </style>
  </defs>
  <path id="kitchen_icon.svg" class="cls-1" d="M623.566,223.651H597.825a1.422,1.422,0,0,0-1.43,1.412v35.163H522.429A1.422,1.422,0,0,0,521,261.637v21.951a1.426,1.426,0,0,0,1.429,1.421H623.566A1.426,1.426,0,0,0,625,283.588V225.063A1.422,1.422,0,0,0,623.566,223.651Zm-74.983,58.516H523.859V263.06h24.724v19.107Zm22.07-10.977v10.977h-19.21V263.06h19.21v8.13ZM596.4,282.167H573.5v-8.132H596.4v8.132Zm0-10.977H573.5v-8.13H596.4v8.13Zm25.742,10.977H599.244v-31.9h22.893v31.9Zm0-34.746H599.244V226.485h22.893v20.936Zm-20.229-10.974v8.325h2.858v-8.325h-2.858Zm0,16.457v8.324h2.858V252.9h-2.858Zm-58.837,12.805v8.326h2.851v-8.326h-2.851Zm23.489,0H555.525a1.428,1.428,0,0,0-1.431,1.422v9.144a1.428,1.428,0,0,0,1.431,1.421H566.56a1.427,1.427,0,0,0,1.429-1.421v-9.144A1.427,1.427,0,0,0,566.56,265.709Zm-1.429,9.144h-8.177v-6.3h8.177v6.3Zm12.053-32.914h-5.822l-4.987-20.862a1.424,1.424,0,0,0-1.395-1.087h-7.875a1.419,1.419,0,0,0-1.387,1.087l-5,20.862H544.9v2.833h32.283v-2.833Zm-23.528,0,4.58-19.106h5.613l4.579,19.106H553.656Z" transform="translate(-521 -220)"/>
</svg>
