<svg xmlns="http://www.w3.org/2000/svg" width="82.031" height="58" viewBox="0 0 82.031 58">
  <defs>
    <style>
      .cls-1 {
        fill: #fff;
        fill-rule: evenodd;
      }
    </style>
  </defs>
  <path id="sofa_icon.svg" class="cls-1" d="M437.815,250.255h0a6.475,6.475,0,0,0-1.7-2.943l0.88-5.228a8.341,8.341,0,0,0-5.911-9.356,8.593,8.593,0,0,0-6.991.964c-0.186.117-.359,0.236-0.525,0.361a7.965,7.965,0,0,0-4.564-5.522,8.085,8.085,0,0,0-7.086.274,7.941,7.941,0,0,0-1.513,1.052,7.822,7.822,0,0,0-1.3-2.082,8.036,8.036,0,0,0-6.091-2.767h-12a8.068,8.068,0,0,0-6.1,2.767,7.948,7.948,0,0,0-1.3,2.082,8.162,8.162,0,0,0-1.507-1.052,8.027,8.027,0,0,0-11.584,5.017c-0.162-.122-0.318-0.23-0.472-0.326a8.135,8.135,0,0,0-6.625-.913,8.919,8.919,0,0,0-6.317,9.992l0.807,4.779a6.567,6.567,0,0,0-1.852,3.635,6.856,6.856,0,0,0,4.018,7.216v12.687a5.381,5.381,0,0,0,4.093,5.2v5.427a1.487,1.487,0,0,0,1.493,1.477h4.091a1.489,1.489,0,0,0,1.39-.93l2.349-5.78h47.025l2.355,5.78a1.489,1.489,0,0,0,1.39.93h4.085a1.489,1.489,0,0,0,1.5-1.477v-5.427a5.381,5.381,0,0,0,4.093-5.2V258.205A6.82,6.82,0,0,0,437.815,250.255Zm-10.959,26.019v3.765H425.28l-1.523-3.765h3.1Zm-59.688,3.765v-3.765h3.106l-1.53,3.765h-1.576Zm61.052-22.688a1.49,1.49,0,0,0,1.5,1.476h1.229v12.059a2.463,2.463,0,0,1-2.48,2.442H365.556a2.461,2.461,0,0,1-2.474-2.442V258.827h1.23a1.476,1.476,0,1,0,0-2.951H362.3a1.4,1.4,0,0,0-.343-0.14,3.9,3.9,0,0,1-2.92-4.329,3.743,3.743,0,0,1,1.375-2.355,0.308,0.308,0,0,0,.046-0.031,4.551,4.551,0,0,1,6.05.505,5.906,5.906,0,0,1,1.755,4.308v12.917a1.489,1.489,0,0,0,1.5,1.476H424.27a1.485,1.485,0,0,0,1.492-1.476V254a6.264,6.264,0,0,1,1.244-3.838,5.021,5.021,0,0,1,3.159-2c0.143-.022.278-0.033,0.421-0.041s0.305-.015.465-0.01c0.088,0,.183.01,0.279,0.024a4.272,4.272,0,0,1,.576.093,0.757,0.757,0,0,0,.1.027,0.584,0.584,0,0,1,.08.02,4.381,4.381,0,0,1,1.49.743,3.59,3.59,0,0,1,1.325,1.953,3.892,3.892,0,0,1-2.837,4.768h0a1.446,1.446,0,0,0-.334.14h-2.014A1.489,1.489,0,0,0,428.22,257.351Zm2-21.794a5.381,5.381,0,0,1,3.82,6.039l-0.673,3.987c-0.132-.044-0.27-0.084-0.4-0.12a5.927,5.927,0,0,0-.653-0.163c-0.135-.027-0.262-0.051-0.4-0.074a7.789,7.789,0,0,0-1-.082l-0.052,0a8.042,8.042,0,0,0-8.094,7.971v6.16c-0.72-.236-1.469-0.457-2.229-0.659l2.7-18.659a5.372,5.372,0,0,1,2.468-3.776A5.51,5.51,0,0,1,430.225,235.557ZM375.8,261.112l0.21-.046c0.8-.166,1.541-0.3,2.271-0.4,0.3-.045.6-0.085,0.9-0.123,0.748-.09,1.52-0.157,2.289-0.2l0.322-.015c0.2-.01.4-0.02,0.6-0.024,0.741-.021,1.493-0.016,2.3.013l0.342,0.013c0.191,0.006.382,0.013,0.574,0.025,0.682,0.042,1.421.115,2.26,0.222l0.28,0.034c0.281,0.034.561,0.067,0.848,0.117,0.336,0.051.667,0.1,1.007,0.17,0.925,0.17,1.746.352,2.51,0.554,0.068,0.018.136,0.039,0.2,0.061s0.161,0.048.241,0.07c0.784,0.222,1.551.465,2.284,0.725,0.1,0.03.188,0.063,0.279,0.1v2.869H371.852a0.581,0.581,0,0,1-.592-0.582v-2.272l0.7-.243c0.475-.164.974-0.321,1.485-0.469,0.483-.143,1-0.281,1.544-0.411C375.258,261.229,375.531,261.17,375.8,261.112Zm46.269,1.064c0.237,0.082.468,0.164,0.7,0.249v2.266a0.587,0.587,0,0,1-.59.582H398.515v-2.862l0.282-.1c0.766-.272,1.512-0.509,2.281-0.724,0.065-.018.131-0.038,0.2-0.059,0.082-.024.163-0.05,0.246-0.071,0.831-.214,1.676-0.4,2.515-0.556,0.346-.068.7-0.123,1.006-0.169,0.319-.05.643-0.091,0.967-0.131l0.16-.02c0.678-.083,1.475-0.174,2.261-0.222,0.192-.012.384-0.019,0.576-0.025l0.339-.013c0.805-.031,1.559-0.035,2.3-0.013,0.2,0,.39.014,0.584,0.024l0.322,0.015c0.814,0.049,1.564.115,2.3,0.2,0.273,0.027.567,0.066,0.9,0.116,0.73,0.106,1.472.238,2.268,0.4,0.344,0.074.683,0.151,1.02,0.23,0.465,0.11.927,0.238,1.374,0.363l0.178,0.048c0.445,0.129.876,0.27,1.332,0.419Zm-1.339-25.723-3.114,21.5a38.346,38.346,0,0,0-6.977-.639q-1.7,0-3.394.15l3.6-22.728a4.943,4.943,0,0,1,2.5-3.334,5.059,5.059,0,0,1,4.438-.173A4.97,4.97,0,0,1,420.729,236.453Zm-12.749-2.771-0.052.358c-0.012.056-.026,0.111-0.04,0.166-0.025.1-.049,0.2-0.066,0.3l-3.792,23.389c-0.522.089-.995,0.18-1.44,0.28l-0.1.021c-0.084.016-.167,0.031-0.251,0.052-0.448.1-.9,0.21-1.352,0.328-0.179.051-.356,0.1-0.537,0.145-0.268.074-.537,0.154-0.8,0.234l-0.333.1c-0.241.072-.477,0.146-0.71,0.226-0.326.11-.647,0.223-0.973,0.34l-0.192.066c-0.107.036-.215,0.072-0.322,0.113-0.1-.038-0.2-0.073-0.308-0.107l-0.21-.072c-0.316-.114-0.635-0.225-0.967-0.34-0.207-.07-0.419-0.136-0.626-0.2l-0.518-.154c-0.235-.07-0.472-0.14-0.705-0.2-0.182-.052-0.358-0.1-0.538-0.147l-0.413-.1c-0.313-.077-0.625-0.154-0.939-0.225-0.085-.02-0.165-0.036-0.246-0.051l-0.109-.022c-0.462-.1-0.933-0.195-1.436-0.28l-3.8-23.385a2.949,2.949,0,0,0-.063-0.308c-0.012-.055-0.026-0.11-0.037-0.161l-0.062-.358a4.93,4.93,0,0,1,1.149-3.991,5.073,5.073,0,0,1,3.823-1.727h12a5.048,5.048,0,0,1,3.817,1.727A4.875,4.875,0,0,1,407.98,233.682Zm-31.564,24.261-3.114-21.49a4.959,4.959,0,0,1,2.936-5.227,5.071,5.071,0,0,1,4.436.173,4.878,4.878,0,0,1,2.5,3.324l3.605,22.738A38.412,38.412,0,0,0,376.416,257.943Zm-5.156,1.326v-6.158a8,8,0,0,0-6.609-7.83,7.331,7.331,0,0,0-1.452-.148,3.034,3.034,0,0,0-.411.036c-0.071.009-.14,0.018-0.21,0.024l-0.19.014a4.605,4.605,0,0,0-.567.06,1.837,1.837,0,0,0-.193.055,7.664,7.664,0,0,0-.976.264l-0.587-3.5a5.958,5.958,0,0,1,4.219-6.673,5.1,5.1,0,0,1,4.154.57,4.963,4.963,0,0,1,2.274,3.471l2.77,19.158C372.73,258.812,371.984,259.032,371.26,259.269Z" transform="translate(-355.969 -225)"/>
</svg>
