<svg xmlns="http://www.w3.org/2000/svg" width="80" height="61" viewBox="0 0 80 61">
  <defs>
    <style>
      .cls-1 {
        fill: #fff;
        fill-rule: evenodd;
      }
    </style>
  </defs>
  <path id="bad_icon.svg" class="cls-1" d="M708.165,225.037a1.526,1.526,0,1,0-1.537-1.526A1.532,1.532,0,0,0,708.165,225.037Zm67.667,0a1.526,1.526,0,1,0-1.538-1.526A1.532,1.532,0,0,0,775.832,225.037Zm4.63,39.651h-0.081v-3.041a7.608,7.608,0,0,0-3.018-6.039c0-.029,0-0.058,0-0.087V228.115a1.532,1.532,0,0,0-1.51-1.554h-0.034A1.532,1.532,0,0,0,774.3,228.1v3.029h-7.378l-6.334-2.747a46.769,46.769,0,0,0-37.169,0l-6.334,2.747H709.7v-3.017a1.531,1.531,0,0,0-1.509-1.554h-0.058a1.531,1.531,0,0,0-1.5,1.554v27.392a7.612,7.612,0,0,0-3.155,6.14v3.047a1.527,1.527,0,0,0-1.476,1.513v10.686a1.531,1.531,0,0,0,1.532,1.531h4.621V283h12.306v-4.572h6.153a1.526,1.526,0,1,0,.258-3.04,1.587,1.587,0,0,0-.258,0H705.093V267.75h44.592a1.531,1.531,0,1,0,0-3.062H706.568v-3.041a4.563,4.563,0,0,1,4.609-4.571h61.508a4.564,4.564,0,0,1,4.61,4.571v3.041h-15.3a1.531,1.531,0,1,0,0,3.062h16.915v7.634H738.923a1.526,1.526,0,1,0-.259,3.04,1.6,1.6,0,0,0,.259,0h24.612V283h12.306v-4.572h4.609a1.531,1.531,0,0,0,1.544-1.519V266.218A1.53,1.53,0,0,0,780.462,264.688ZM717.4,279.956h-6.152v-1.532H717.4v1.532Zm1.362-30.181a8.421,8.421,0,0,0-.839-3.244,3.166,3.166,0,0,1,2.066.429,4.779,4.779,0,0,0,3.837.092,11.771,11.771,0,0,1,2.816-.631h1.5a12.464,12.464,0,0,1,2.816.5,6.406,6.406,0,0,0,3.5.18,20.455,20.455,0,0,1,2.452-.5c-0.455,1.078-.935,1.31-0.885,3.243l0.1,4.169H718.867Zm29.222,0a8.4,8.4,0,0,0-.84-3.244,3.165,3.165,0,0,1,2.066.429,4.779,4.779,0,0,0,3.837.092,11.782,11.782,0,0,1,2.816-.631h1.5a12.464,12.464,0,0,1,2.816.5,6.406,6.406,0,0,0,3.5.18,20.5,20.5,0,0,1,2.452-.5c-0.455,1.078-.936,1.31-0.886,3.243l0.105,4.169H748.089Zm20.427,4.238-0.107-4.239a7.4,7.4,0,0,1,1.09-4.256,1.517,1.517,0,0,0-.36-2.127,1.546,1.546,0,0,0-.911-0.283v0a1.572,1.572,0,0,0-.2.023,43.829,43.829,0,0,0-5.109,1.035,4.342,4.342,0,0,1-1.884-.2,14.289,14.289,0,0,0-3.565-.587h-1.5a12.652,12.652,0,0,0-3.679.721,2.9,2.9,0,0,1-1.453.2,9.87,9.87,0,0,0-5.9-1.171,1.526,1.526,0,0,0-1.255,1.762,1.461,1.461,0,0,0,.1.333,21.264,21.264,0,0,1,1.248,4.616l0.1,4.169h-5.833l-0.106-4.239a7.391,7.391,0,0,1,1.089-4.256,1.517,1.517,0,0,0-.361-2.127,1.545,1.545,0,0,0-.91-0.283v0a1.534,1.534,0,0,0-.2.023,43.829,43.829,0,0,0-5.109,1.035,4.341,4.341,0,0,1-1.884-.2,14.281,14.281,0,0,0-3.565-.587h-1.5a12.652,12.652,0,0,0-3.679.721,2.9,2.9,0,0,1-1.453.2,9.87,9.87,0,0,0-5.9-1.171,1.521,1.521,0,0,0-1.158,2.095,21.249,21.249,0,0,1,1.249,4.616l0.1,4.169h-4.623a7.717,7.717,0,0,0-1.475.145V234.2h8.015l6.925-3.018a43.653,43.653,0,0,1,34.715,0l6.925,3.018H774.3v19.991a7.7,7.7,0,0,0-1.611-.173h-4.276Zm4.344,25.943H766.6v-1.532h6.153v1.532Z" transform="translate(-702 -222)"/>
</svg>
