<?xml version="1.0" encoding="utf-8"?>
<!-- Generator: Adobe Illustrator 21.0.0, SVG Export Plug-In . SVG Version: 6.00 Build 0)  -->
<svg version="1.1" id="Слой_1" xmlns="http://www.w3.org/2000/svg" xmlns:xlink="http://www.w3.org/1999/xlink" x="0px" y="0px"
	 viewBox="0 0 505.5 390.2" style="enable-background:new 0 0 505.5 390.2;" xml:space="preserve">
<style type="text/css">
	.st0{fill:none;stroke:#fff;stroke-width:13;stroke-miterlimit:10;}
	.st1{fill:none;}
</style>
<g>
	<line class="st0" x1="8" y1="29.5" x2="20.4" y2="383.6"/>
	<polyline class="st0" points="15.3,236.9 162.5,236.9 162.5,338.7 162.5,383.6 	"/>
</g>
<line class="st0" x1="18.8" y1="338.6" x2="162.5" y2="338.7"/>
<g>
	<line class="st0" x1="497.4" y1="29.5" x2="485" y2="383.6"/>
	<polyline class="st0" points="490.2,236.9 342.9,236.9 342.9,338.7 342.9,383.6 	"/>
</g>
<line class="st0" x1="74.6" y1="134.1" x2="432.8" y2="134.1"/>
<line class="st0" x1="253.8" y1="0" x2="253.3" y2="47.5"/>
<path class="st0" d="M280.6,134.1c13.5-64,8.3-82.7,0-86.7c-3.8-1.8-6.8,0.1-27.3,0c-19.5-0.1-21.5-1.8-25,0
	c-14.5,7.3-5.7,49.7,0,86.7c0,0,11.4,74.1,10.3,137.9c-0.4,26.2-3.7,64.2-17.3,110.4h65.2c-13.6-46.3-16.8-84.2-17.3-110.4
	c-1.1-63.8,10.3-137.9,10.3-137.9c5.7-37,14.5-79.4,0-86.7c-3.5-1.8-5.5-0.1-25,0c-20.4,0.1-23.5-1.8-27.3,0
	c-8.3,4-13.5,22.7,0,86.7"/>
<path class="st1" d="M286,383.2"/>
<path class="st0" d="M180.8,67.5c9.5,10.4,12.6,24.3,7.8,35.7c-0.4,0.9-7.5,17-21.8,17.1c-14,0.2-21-14.5-21.8-16.4
	c-5.1-11.2-2.3-25.2,7-35.8L180.8,67.5z"/>
<path class="st0" d="M327.6,67.5c-9.5,10.4-12.6,24.3-7.8,35.7c0.4,0.9,7.5,17,21.8,17.1c14,0.2,21-14.5,21.8-16.4
	c5.1-11.2,2.3-25.2-7-35.8L327.6,67.5z"/>
<line class="st0" x1="166.8" y1="120.3" x2="166.8" y2="134.1"/>
<line class="st0" x1="341.6" y1="120.3" x2="341.8" y2="134.1"/>
<line class="st0" x1="346.7" y1="338.7" x2="490.4" y2="338.7"/>
</svg>
