<?xml version="1.0" encoding="utf-8"?>
<!-- Generator: Adobe Illustrator 21.0.0, SVG Export Plug-In . SVG Version: 6.00 Build 0)  -->
<svg version="1.1" id="Layer_1" xmlns="http://www.w3.org/2000/svg" xmlns:xlink="http://www.w3.org/1999/xlink" x="0px" y="0px"
	 viewBox="0 0 487.7 342.1" style="enable-background:new 0 0 487.7 342.1;" xml:space="preserve">
<style type="text/css">
	.st0{fill:none;stroke:#fff;stroke-width:13;stroke-miterlimit:10;}
	.st1{fill:none;stroke:#fff;stroke-width:8;stroke-miterlimit:10;}
</style>
<rect x="10.2" y="7.4" class="st0" width="467.3" height="328.3"/>
<g>
	<g>

			<ellipse transform="matrix(0.7071 -0.7071 0.7071 0.7071 -21.009 95.138)" class="st1" cx="104.3" cy="72.9" rx="10.8" ry="10.8"/>
		<line class="st1" x1="85.9" y1="91.4" x2="96.7" y2="80.6"/>
		<line class="st1" x1="123.6" y1="53.7" x2="112" y2="65.3"/>
		<line class="st1" x1="86" y1="54.6" x2="96.7" y2="65.3"/>
		<line class="st1" x1="112" y1="80.6" x2="123.5" y2="92.1"/>
	</g>
	<g>

			<ellipse transform="matrix(0.7071 -0.7071 0.7071 0.7071 -85.1719 121.2308)" class="st1" cx="103.8" cy="163.4" rx="10.8" ry="10.8"/>
		<line class="st1" x1="85.3" y1="181.9" x2="96.1" y2="171.1"/>
		<line class="st1" x1="123" y1="144.2" x2="111.4" y2="155.8"/>
		<line class="st1" x1="85.4" y1="145.1" x2="96.1" y2="155.8"/>
		<line class="st1" x1="111.4" y1="171.1" x2="122.9" y2="182.6"/>
	</g>
	<g>

			<ellipse transform="matrix(0.7071 -0.7071 0.7071 0.7071 -155.5506 150.6248)" class="st1" cx="104" cy="263.1" rx="10.8" ry="10.8"/>
		<line class="st1" x1="85.6" y1="281.5" x2="96.4" y2="270.7"/>
		<line class="st1" x1="123.3" y1="243.8" x2="111.7" y2="255.4"/>
		<line class="st1" x1="85.7" y1="244.8" x2="96.4" y2="255.4"/>
		<line class="st1" x1="111.7" y1="270.7" x2="123.2" y2="282.2"/>
	</g>
	<g>

			<ellipse transform="matrix(0.7071 -0.7071 0.7071 0.7071 6.7551 162.1663)" class="st1" cx="199.1" cy="72.9" rx="10.8" ry="10.8"/>
		<line class="st1" x1="180.7" y1="91.4" x2="191.5" y2="80.6"/>
		<line class="st1" x1="218.4" y1="53.7" x2="206.8" y2="65.3"/>
		<line class="st1" x1="180.8" y1="54.6" x2="191.5" y2="65.3"/>
		<line class="st1" x1="206.8" y1="80.6" x2="218.3" y2="92.1"/>
	</g>
	<g>

			<ellipse transform="matrix(0.7071 -0.7071 0.7071 0.7071 -57.4079 188.2591)" class="st1" cx="198.5" cy="163.4" rx="10.8" ry="10.8"/>
		<line class="st1" x1="180.1" y1="181.9" x2="190.9" y2="171.1"/>
		<line class="st1" x1="217.8" y1="144.2" x2="206.2" y2="155.8"/>
		<line class="st1" x1="180.2" y1="145.1" x2="190.9" y2="155.8"/>
		<line class="st1" x1="206.2" y1="171.1" x2="217.7" y2="182.6"/>
	</g>
	<g>

			<ellipse transform="matrix(0.7071 -0.7071 0.7071 0.7071 -127.7866 217.6531)" class="st1" cx="198.8" cy="263.1" rx="10.8" ry="10.8"/>
		<line class="st1" x1="180.4" y1="281.5" x2="191.2" y2="270.7"/>
		<line class="st1" x1="218.1" y1="243.8" x2="206.5" y2="255.4"/>
		<line class="st1" x1="180.5" y1="244.8" x2="191.2" y2="255.4"/>
		<line class="st1" x1="206.5" y1="270.7" x2="218" y2="282.2"/>
	</g>
	<g>

			<ellipse transform="matrix(0.7071 -0.7071 0.7071 0.7071 33.6544 226.8323)" class="st1" cx="290.6" cy="72.8" rx="10.8" ry="10.8"/>
		<line class="st1" x1="272.2" y1="91.2" x2="283" y2="80.5"/>
		<line class="st1" x1="309.9" y1="53.5" x2="298.3" y2="65.1"/>
		<line class="st1" x1="272.3" y1="54.5" x2="283" y2="65.1"/>
		<line class="st1" x1="298.3" y1="80.5" x2="309.8" y2="91.9"/>
	</g>
	<g>

			<ellipse transform="matrix(0.7071 -0.7071 0.7071 0.7071 -30.5086 252.9251)" class="st1" cx="290.1" cy="163.3" rx="10.8" ry="10.8"/>
		<line class="st1" x1="271.6" y1="181.7" x2="282.4" y2="171"/>
		<line class="st1" x1="309.3" y1="144" x2="297.7" y2="155.6"/>
		<line class="st1" x1="271.7" y1="145" x2="282.4" y2="155.6"/>
		<line class="st1" x1="297.7" y1="171" x2="309.2" y2="182.4"/>
	</g>
	<g>

			<ellipse transform="matrix(0.7071 -0.7071 0.7071 0.7071 -100.8873 282.3191)" class="st1" cx="290.3" cy="262.9" rx="10.8" ry="10.8"/>
		<line class="st1" x1="271.9" y1="281.4" x2="282.7" y2="270.6"/>
		<line class="st1" x1="309.6" y1="243.7" x2="298" y2="255.3"/>
		<line class="st1" x1="272" y1="244.6" x2="282.7" y2="255.3"/>
		<line class="st1" x1="298" y1="270.6" x2="309.5" y2="282.1"/>
	</g>
	<g>

			<ellipse transform="matrix(0.7071 -0.7071 0.7071 0.7071 61.4184 293.8607)" class="st1" cx="385.4" cy="72.8" rx="10.8" ry="10.8"/>
		<line class="st1" x1="367" y1="91.2" x2="377.8" y2="80.5"/>
		<line class="st1" x1="404.7" y1="53.5" x2="393.1" y2="65.1"/>
		<line class="st1" x1="367.1" y1="54.5" x2="377.8" y2="65.1"/>
		<line class="st1" x1="393.1" y1="80.5" x2="404.6" y2="91.9"/>
	</g>
	<g>

			<ellipse transform="matrix(0.7071 -0.7071 0.7071 0.7071 -2.7446 319.9534)" class="st1" cx="384.8" cy="163.3" rx="10.8" ry="10.8"/>
		<line class="st1" x1="366.4" y1="181.7" x2="377.2" y2="171"/>
		<line class="st1" x1="404.1" y1="144" x2="392.5" y2="155.6"/>
		<line class="st1" x1="366.5" y1="145" x2="377.2" y2="155.6"/>
		<line class="st1" x1="392.5" y1="171" x2="404" y2="182.4"/>
	</g>
	<g>

			<ellipse transform="matrix(0.7071 -0.7071 0.7071 0.7071 -73.1232 349.3474)" class="st1" cx="385.1" cy="262.9" rx="10.8" ry="10.8"/>
		<line class="st1" x1="366.7" y1="281.4" x2="377.5" y2="270.6"/>
		<line class="st1" x1="404.4" y1="243.7" x2="392.8" y2="255.3"/>
		<line class="st1" x1="366.8" y1="244.6" x2="377.5" y2="255.3"/>
		<line class="st1" x1="392.8" y1="270.6" x2="404.3" y2="282.1"/>
	</g>
</g>
<line class="st1" x1="13.9" y1="276.5" x2="67.1" y2="337.5"/>
<line class="st1" x1="477.5" y1="276.5" x2="424.3" y2="337.5"/>
<line class="st1" x1="12" y1="68.4" x2="65.3" y2="7.4"/>
<line class="st1" x1="475.7" y1="68.4" x2="422.5" y2="7.4"/>
</svg>
