<svg xmlns="http://www.w3.org/2000/svg" width="74.031" height="62.969" viewBox="0 0 74.031 62.969">
  <defs>
    <style>
      .cls-1 {
        fill: #fff;
        fill-rule: evenodd;
      }
    </style>
  </defs>
  <path id="shower_icon.svg" class="cls-1" d="M852.519,249.03H848.46V230.08c0-5.52-3.172-9.086-8.082-9.086a8.187,8.187,0,0,0-7.106,4.241c-1.735.165-5.714,0.838-6.821,3.542a1.567,1.567,0,0,0,.85,2.043l8.912,3.669a1.56,1.56,0,0,0,2.035-.855c1.055-2.58-1.107-5.745-2.15-7.056a5.051,5.051,0,0,1,4.281-2.458c3.107,0,4.963,2.228,4.963,5.959v18.95H817.281c-0.128-1.271-1.562-2.879-11.13-2.879-9.529,0-10.979,1.609-11.127,2.879h-7.577a4.482,4.482,0,0,0-4.471,4.484,1.561,1.561,0,0,0,.457,1.106l2.453,2.46v4.013c0,8.72,2.415,13.86,7.823,16.648l-1.428,4.14a1.56,1.56,0,0,0,2.948,1.023l1.371-3.977c5.691,1.809,13.506,1.809,23.383,1.809,9.347,0,17.428,0,23.321-1.985l1.432,4.153a1.562,1.562,0,0,0,1.475,1.053,1.561,1.561,0,0,0,1.4-.881,1.566,1.566,0,0,0,.071-1.194l-1.5-4.351c5.385-2.874,7.894-8.1,7.894-16.438v-4.013l2.452-2.458a1.551,1.551,0,0,0,.46-1.108A4.481,4.481,0,0,0,852.519,249.03ZM789.006,258h6v6.213c0,0.957,0,3.2,11.142,3.2s11.143-2.239,11.143-3.2V258h33.665v3.1c0,15.848-9.5,16.516-30.976,16.516-21.27,0-30.977,0-30.977-16.516V258Zm9.121,5.539v-0.713h16.047v0.713A43.694,43.694,0,0,1,798.127,263.534Zm0-3.841V250.02a43.717,43.717,0,0,1,16.046,0v9.672H798.128Zm-10.681-7.535h7.563v2.71h-6.918l-1.887-1.892A1.357,1.357,0,0,1,787.447,252.158Zm66.313,0.818-1.888,1.892H817.293v-2.71h35.226A1.355,1.355,0,0,1,853.76,252.976ZM834.989,230.6l-4.109-1.691a11.726,11.726,0,0,1,2.638-.558A11.964,11.964,0,0,1,834.989,230.6Z" transform="translate(-782.969 -221)"/>
</svg>
