<?xml version="1.0" encoding="utf-8"?>
<!-- Generator: Adobe Illustrator 21.0.0, SVG Export Plug-In . SVG Version: 6.00 Build 0)  -->
<svg version="1.1" id="Layer_1" xmlns="http://www.w3.org/2000/svg" xmlns:xlink="http://www.w3.org/1999/xlink" x="0px" y="0px"
	 viewBox="0 0 487.7 426.4" style="enable-background:new 0 0 487.7 426.4;" xml:space="preserve">
<style type="text/css">
	.st0{fill:#FFFFFF;}
</style>
<path class="st0" d="M481.7,241.9c1.4-1.5,2.2-3.4,2.2-5.6c0-4.5-3.7-8.2-8.2-8.2h-1.9c-6-10.3-4.7-26.1,1.2-30.5
	c2.8-2.1,4-5.8,2.9-9.1s-4.2-5.6-7.8-5.6h-78.4c-3.5,0-6.6,2.3-7.8,5.6c-1.1,3.3,0,7,2.9,9.1c5.9,4.4,7.2,20.3,1.2,30.5h-1.9
	c-4.5,0-8.2,3.7-8.2,8.2c0,2.2,0.9,4.1,2.2,5.6c-2.6,6.5-4,13.4-4,20.5c0,21,11.8,39.2,29.2,48.4c-11.7,13.2-28.6,20.9-46.6,20.9
	c-33.1,0-60.3-25.7-62.3-58.6c0.7-3.5,1.1-7,1.1-10.7c0-7.1-1.4-14.1-4-20.5c1.4-1.5,2.2-3.4,2.2-5.6c0-4.5-3.7-8.2-8.2-8.2h-1.9
	c-2.8-4.8-4-10.9-3.9-16.4h12.1c17,0,30.8-13.8,30.8-30.8c0-15.9-12.2-29.1-27.7-30.6c0.5-11.8,10.2-21.2,22.1-21.2
	c12.2,0,22.2,9.9,22.2,22.2v15.2c0,12.9,10.5,23.4,23.4,23.4s23.4-10.5,23.4-23.4c0-4.5-3.7-8.2-8.2-8.2s-8.2,3.7-8.2,8.2
	c0,3.9-3.2,7.1-7.1,7.1s-7.1-3.2-7.1-7.1v-15.2c0-21.2-17.3-38.5-38.5-38.5c-20.8,0-37.9,16.7-38.5,37.4h-18.5
	c0.9-2.9,1.5-6,1.5-9.3c0-6.9-2.2-13-5.9-17.5c3.7-4.4,5.9-10.6,5.9-17.5s-2.2-13-5.9-17.5c3.7-4.4,5.9-10.6,5.9-17.5
	c0-4.5-1-8.8-2.7-12.4c20.7-7.4,35.6-27.2,35.6-50.5c0-4.5-3.7-8.2-8.2-8.2h-90.8c-4.5,0-8.2,3.7-8.2,8.2
	c0,23.3,14.9,43.1,35.6,50.5c-1.7,3.6-2.7,7.8-2.7,12.4c0,6.9,2.2,13,5.9,17.5c-3.7,4.4-5.9,10.6-5.9,17.5s2.2,13,5.9,17.5
	c-3.7,4.4-5.9,10.6-5.9,17.5c0,3.3,0.5,6.4,1.5,9.3H205c-0.6-20.7-17.6-37.4-38.5-37.4c-21.2,0-38.5,17.3-38.5,38.5v15.2
	c0,3.9-3.2,7.1-7.1,7.1s-7.1-3.2-7.1-7.1c0-4.5-3.7-8.2-8.2-8.2s-8.2,3.7-8.2,8.2c0,12.9,10.5,23.4,23.4,23.4s23.4-10.5,23.4-23.4
	v-15.2c0-12.2,9.9-22.2,22.2-22.2c11.9,0,21.6,9.4,22.1,21.2c-15.5,1.6-27.7,14.7-27.7,30.6c0,17,13.8,30.8,30.8,30.8h11.9
	c0.1,5.5-1.1,11.6-3.9,16.4H198c-4.5,0-8.2,3.7-8.2,8.2c0,2.2,0.9,4.1,2.2,5.6c-2.6,6.5-4,13.4-4,20.5c0,3.7,0.4,7.2,1.1,10.7
	c-2,32.9-29.1,58.6-62.3,58.6c-18,0-34.9-7.7-46.6-20.9c17.3-9.2,29.2-27.4,29.2-48.4c0-7.1-1.4-14.1-4-20.5
	c1.4-1.5,2.2-3.4,2.2-5.6c0-4.5-3.7-8.2-8.2-8.2h-1.9c-6-10.3-4.7-26.1,1.2-30.5c2.8-2.1,4-5.8,2.9-9.1s-4.2-5.6-7.8-5.6H15.6
	c-3.5,0-6.6,2.3-7.8,5.6c-1.1,3.3,0,7,2.9,9.1c5.9,4.4,7.2,20.3,1.2,30.5h-2c-4.5,0-8.2,3.7-8.2,8.2c0,2.2,0.9,4.1,2.2,5.6
	c-2.6,6.5-4,13.4-4,20.5c0,30.2,24.6,54.7,54.7,54.7c3.1,0,6.1-0.3,9.1-0.8c10.7,14.4,25.8,24.5,42.8,29c-2.5,3.5-5,7.8-7.2,12.7
	c-5.4,11.9-9,26.3-9,35.8c0,13.2,7,24.8,17.6,31.2c-0.1,0.1-0.1,0.1-0.2,0.2H146c-0.1-0.1-0.1-0.1-0.2-0.2
	c10.5-6.4,17.6-18,17.6-31.2c0-9.5-3.6-23.9-9-35.8c-2.2-4.9-4.6-9.2-7.2-12.7c24.6-6.5,44.5-24.6,53.4-48.2
	c8.4,10.2,20.4,17.3,34.1,19.4V335c-6.8,3.7-13,11.5-18.2,23.1c-5.4,11.9-9,26.3-9,35.8c0,13.2,7,24.8,17.6,31.2
	c-0.1,0.1-0.1,0.1-0.2,0.2h38.2c-0.1-0.1-0.1-0.1-0.2-0.2c10.5-6.4,17.6-18,17.6-31.2c0-9.5-3.6-23.9-9-35.8
	c-5.8-12.8-12.8-21-20.4-24.1v-17.5c13.7-2.1,25.7-9.2,34.1-19.4c9.1,24.2,29.8,42.6,55.2,48.7c-2.4,3.4-4.7,7.5-6.9,12.2
	c-5.4,11.9-9,26.3-9,35.8c0,13.2,7,24.8,17.6,31.2c-0.1,0.1-0.1,0.1-0.2,0.2h38.2c-0.1-0.1-0.1-0.1-0.2-0.2
	c10.5-6.4,17.6-18,17.6-31.2c0-9.5-3.6-23.9-9-35.8c-2.3-5.2-4.9-9.6-7.5-13.2c16.3-4.7,30.7-14.6,41-28.5c2.9,0.5,6,0.8,9.1,0.8
	c30.2,0,54.7-24.6,54.7-54.7C485.7,255.3,484.4,248.4,481.7,241.9z M30.2,199.3h49.1c-2.7,9-2.4,19.7,0.6,28.9H29.6
	C32.5,218.9,32.9,208.3,30.2,199.3z M54.7,300.9c-21.2,0-38.4-17.2-38.4-38.4c0-6.3,1.5-12.5,4.5-17.9h67.9
	c2.9,5.5,4.5,11.6,4.5,17.9C93.1,283.6,75.9,300.9,54.7,300.9z M126.9,414.2c-11.1,0-20.2-9-20.2-20.2c0-6.1,2.6-18.1,7.6-29.1
	c5.3-11.7,10.4-15.9,12.6-15.9s7.3,4.2,12.6,15.9c5,11,7.6,22.9,7.6,29.1C147.1,405.1,138,414.2,126.9,414.2z M206.6,16.4h72.7
	C275.6,33,260.7,45.5,243,45.5S210.3,33,206.6,16.4z M242.9,114.4c-1.5,0-4.3-3.2-4.3-8.4c0-5.2,2.8-8.4,4.3-8.4s4.3,3.2,4.3,8.4
	C247.2,111.2,244.5,114.4,242.9,114.4z M247.2,140.9c0,5.2-2.8,8.4-4.3,8.4s-4.3-3.2-4.3-8.4s2.8-8.4,4.3-8.4
	C244.5,132.5,247.2,135.7,247.2,140.9z M242.9,79.5c-1.5,0-4.3-3.2-4.3-8.4s2.8-8.4,4.3-8.4s4.3,3.2,4.3,8.4S244.5,79.5,242.9,79.5z
	 M256.5,364.9c5,11,7.6,22.9,7.6,29.1c0,11.1-9,20.2-20.2,20.2c-11.1,0-20.2-9-20.2-20.2c0-6.1,2.6-18.1,7.6-29.1
	c5.3-11.7,10.4-15.9,12.6-15.9C246.1,349,251.3,353.3,256.5,364.9z M242.9,300.9c-21.2,0-38.4-17.2-38.4-38.4
	c0-6.3,1.5-12.5,4.5-17.9h67.9c2.9,5.5,4.5,11.6,4.5,17.9C281.2,283.6,264,300.9,242.9,300.9z M218.3,199.3h49.1
	c-2.7,9-2.4,19.7,0.6,28.9h-50.3C220.7,218.9,221,208.3,218.3,199.3z M203.7,182.9L203.7,182.9c-3.5,0-6.6,2.3-7.8,5.6
	c-0.8,2.4-0.4,4.9,0.9,6.9H192c-8,0-14.4-6.5-14.4-14.4c0-8,6.5-14.4,14.4-14.4h101.9c8,0,14.4,6.5,14.4,14.4
	c0,8-6.5,14.4-14.4,14.4H289c1.3-2,1.6-4.6,0.9-6.9c-1.1-3.3-4.2-5.6-7.8-5.6H203.7z M381.1,394c0,11.1-9,20.2-20.2,20.2
	s-20.2-9-20.2-20.2c0-6.1,2.6-18.1,7.6-29.1c5.3-11.7,10.4-15.9,12.6-15.9s7.3,4.2,12.6,15.9C378.5,375.9,381.1,387.9,381.1,394z
	 M406.4,199.3h49.1c-2.7,9-2.4,19.7,0.6,28.9h-50.3C408.8,218.9,409.2,208.3,406.4,199.3z M431,300.9c-21.2,0-38.4-17.2-38.4-38.4
	c0-6.3,1.5-12.5,4.5-17.9H465c2.9,5.5,4.5,11.6,4.5,17.9C469.4,283.6,452.1,300.9,431,300.9z"/>
</svg>
