<svg xmlns="http://www.w3.org/2000/svg" width="71.031" height="71" viewBox="0 0 71.031 71">
  <defs>
    <style>
      .cls-1 {
        fill: #fff;
        fill-rule: evenodd;
      }
    </style>
  </defs>
  <path id="kids_room_icon.svg" class="cls-1" d="M506.694,228.263a7.293,7.293,0,0,0-4.948,12.658v8.5H455.233v-8.5a7.3,7.3,0,1,0-9.895,0V284h9.895v-4.7h46.513V284h9.9V240.921A7.293,7.293,0,0,0,506.694,228.263ZM493.516,260.5v15.955h-5.379V260.5h5.379Zm0-8.229v5.379h-5.379v-5.379h5.379Zm-8.223,8.229v15.955h-5.378V260.5h5.378Zm0-8.229v5.379h-5.378v-5.379h5.378Zm-8.228,8.229v15.955h-5.379V260.5h5.379Zm0-8.229v5.379h-5.379v-5.379h5.379Zm-8.223,8.229v15.955h-5.379V260.5h5.379Zm0-8.229v5.379h-5.379v-5.379h5.379Zm-20.661-9.717a7.332,7.332,0,0,0,.841.2l0.069,0.011a6.662,6.662,0,0,0,2.348,0,0.416,0.416,0,0,0,.106-0.016,7.1,7.1,0,0,0,.838-0.2v38.6h-4.2v-38.6Zm4.743-3.424a5.167,5.167,0,0,1-.546.348c-0.022.009-.043,0.021-0.094,0.048a4.071,4.071,0,0,1-.592.246l-0.1.031a4.428,4.428,0,0,1-2.664-.012l-0.066-.022a4.045,4.045,0,0,1-.589-0.246l-0.064-.033a5.136,5.136,0,0,1-.575-0.362L447.6,239.1A4.458,4.458,0,1,1,452.924,239.126Zm7.689,13.141v5.379h-5.38v-5.379h5.38Zm0,8.229v15.955h-5.38V260.5h5.38ZM504.6,242.551a7.082,7.082,0,0,0,.837.2l0.066,0.012a6.638,6.638,0,0,0,2.348,0,0.406,0.406,0,0,0,.112-0.016,7.141,7.141,0,0,0,.839-0.2v38.6h-4.2v-38.6Zm4.771-3.447,0.15,0.2-0.175-.178a4.535,4.535,0,0,1-.572.354l-0.072.042a5.743,5.743,0,0,1-.629.259l-0.06.02a4.415,4.415,0,0,1-2.617,0c-0.033-.012-0.067-0.022-0.111-0.035-0.2-.072-0.4-0.156-0.568-0.236l-0.1-.054a4.276,4.276,0,0,1-.582-0.364,4.4,4.4,0,0,1-1.793-3.548A4.451,4.451,0,1,1,509.367,239.1ZM501.746,260.5v15.955h-5.379V260.5h5.379Zm0-8.229v5.379h-5.379v-5.379h5.379Zm-39.333-12.942-0.536,3.109a1.442,1.442,0,0,0,.57,1.389,1.416,1.416,0,0,0,.836.273,1.378,1.378,0,0,0,.661-0.167l2.793-1.466,2.793,1.466a1.427,1.427,0,0,0,1.5-.106,1.442,1.442,0,0,0,.571-1.391l-0.536-3.107,2.257-2.2a1.42,1.42,0,0,0-.789-2.428l-3.119-.452-1.2-2.443a9.763,9.763,0,0,1,8.858-8.86V235.9a2.013,2.013,0,0,0-.507.491l-2.892,4.138a2.191,2.191,0,0,0-.189,2.295,2.364,2.364,0,0,0,2.12,1.217h5.79a2.353,2.353,0,0,0,2.115-1.222,2.184,2.184,0,0,0-.189-2.3l-2.895-4.141a2.068,2.068,0,0,0-.5-0.486V223.105a9.7,9.7,0,0,1,7.679,8.689h-2.052a1.427,1.427,0,0,0-1.425,1.426V239.1a1.423,1.423,0,0,0,1.425,1.417H492.6a1.419,1.419,0,0,0,1.418-1.417V233.22a1.424,1.424,0,0,0-1.418-1.426h-2.146a12.588,12.588,0,0,0-10.534-11.579v-5.8a1.425,1.425,0,1,0-2.85,0v5.669a12.589,12.589,0,0,0-11.7,11.518l-1.3,2.636-3.123.457a1.421,1.421,0,0,0-.787,2.426Zm5.714-.256,0.173,1-0.9-.476a1.443,1.443,0,0,0-1.32.006l-0.9.473,0.173-1a1.439,1.439,0,0,0-.411-1.265l-0.728-.7,1.009-.149a1.412,1.412,0,0,0,1.072-.78l0.448-.908,0.449,0.908a1.408,1.408,0,0,0,1.071.78l1.009,0.145-0.728.709A1.441,1.441,0,0,0,468.127,239.069Zm8.545,2.125,1.817-2.595,1.818,2.595h-3.635Zm10.294-3.523v-3.034h4.2v3.034h-4.2Z" transform="translate(-442.969 -213)"/>
</svg>
